Coordinates
version=1
nRows=19
nColumns=36
inDegrees=yes

Units are S.I. units (second, meters, Newtons, ...)
If the header above contains a line with 'inDegrees', this indicates whether rotational values are in degrees (yes) or radians (no).

endheader
time	pelvis_tilt	pelvis_list	pelvis_rotation	pelvis_tx	pelvis_ty	pelvis_tz	hip_flexion_r	hip_adduction_r	hip_rotation_r	knee_angle_r	knee_angle_r_beta	ankle_angle_r	subtalar_angle_r	mtp_angle_r	hip_flexion_l	hip_adduction_l	hip_rotation_l	knee_angle_l	knee_angle_l_beta	ankle_angle_l	subtalar_angle_l	mtp_angle_l	lumbar_extension	lumbar_bending	lumbar_rotation	arm_flex_r	arm_add_r	arm_rot_r	elbow_flex_r	pro_sup_r	arm_flex_l	arm_add_l	arm_rot_l	elbow_flex_l	pro_sup_l
      0.73000000	      0.95547701	      1.69511910	     -3.49475534	      0.76091366	      1.03146987	     -0.19760099	     -4.00834366	     -1.77205857	     -2.87948539	     51.04464314	      0.89089709	     -1.00192348	      1.91809141	     -6.88863943	     19.71359539	      4.06773561	      2.31554495	     17.49421024	      0.30533157	     -2.52169837	     -5.20704738	     -6.88863943	    -11.87718198	    -19.44706019	     -5.66281827	    -16.43169144	     -9.53331404	    -14.42146900	     56.95331137	    103.68470650	    -32.67223899	     -2.42138172	    -30.54445981	     41.71464463	     91.79843312
      0.74000000	      0.88925927	      1.64124217	     -3.43921657	      0.77199881	      1.03359457	     -0.19868785	     -2.28002537	     -1.86339324	     -2.97881482	     54.12068299	      0.94458411	     -1.76489000	      0.20765161	     -6.89587628	     19.02243487	      4.12378303	      2.33029043	     17.42249765	      0.30407995	     -1.78867725	     -4.93166507	     -6.89587628	    -11.94011102	    -19.30777248	     -5.88151093	    -16.37493107	     -9.67279154	    -13.92325947	     56.91925803	    103.71875054	    -31.98101786	     -2.82520793	    -30.42148907	     41.94993683	     91.97698029
      0.75000000	      0.83058971	      1.56165847	     -3.34837737	      0.78295643	      1.03580365	     -0.19975073	     -0.58956776	     -1.88982624	     -3.13747030	     56.95058933	      0.99397529	     -2.26923368	     -1.76369414	     -6.90292908	     18.27490481	      4.16388731	      2.45374813	     17.23914949	      0.30087992	     -1.09891981	     -4.69612999	     -6.90292908	    -12.01544461	    -19.12062597	     -6.10223375	    -16.30283864	     -9.81574492	    -13.38673932	     56.88566763	    103.75810047	    -31.23397596	     -3.28909664	    -30.25030522	     42.23420010	     92.16501234
      0.76000000	      0.81740862	      1.42294242	     -3.23798358	      0.79376212	      1.03813358	     -0.20083519	      1.01592704	     -1.81857917	     -3.32187387	     59.47482951	      1.03803160	     -2.52660505	     -3.80483628	     -6.90933294	     17.45935601	      4.15076294	      2.70173197	     17.00772777	      0.29684085	     -0.53667063	     -4.48652433	     -6.90933294	    -12.14280699	    -18.84281070	     -6.33438286	    -16.22995382	     -9.92517894	    -12.86582296	     56.83317789	    103.79697739	    -30.40925606	     -3.73426456	    -30.02923419	     42.56968892	     92.35140753
      0.77000000	      0.71316708	      1.17108044	     -3.11215011	      0.80443680	      1.04041910	     -0.20182270	      2.68146477	     -1.56427073	     -3.55649871	     61.61668156	      1.07541397	     -3.31453608	     -6.67355779	     -6.92607327	     16.75525633	      3.98247128	      2.86204569	     16.78980727	      0.29303742	     -0.01943592	     -4.20043685	     -6.92607327	    -12.15416534	    -18.41580874	     -6.57624855	    -16.10012760	    -10.12710222	    -12.11733417	     56.69079442	    103.84622027	    -29.58881653	     -4.27286925	    -29.58237215	     42.89934703	     92.76433994
      0.78000000	      0.73185876	      1.02729465	     -2.96763499	      0.81502882	      1.04280753	     -0.20297965	      4.17158127	     -1.48220345	     -3.80698842	     63.52665793	      1.10874934	     -2.83553461	     -8.36469190	     -6.93077167	     15.80030643	      3.98248553	      3.23385674	     16.32411168	      0.28490950	      0.45108797	     -4.00924412	     -6.93077167	    -12.30279812	    -18.07501723	     -6.79176434	    -16.02177306	    -10.18319043	    -11.79589426	     56.67465953	    103.87329750	    -28.63947677	     -4.77477564	    -29.42994788	     43.33010500	     92.91117903
      0.79000000	      0.59234777	      0.82126708	     -2.81428332	      0.82549751	      1.04495579	     -0.20404879	      5.81402145	     -1.28914980	     -4.11268264	     65.08760313	      1.13599298	     -2.85012077	    -10.65814252	     -6.93867797	     15.02577792	      3.87609553	      3.46043284	     15.84323696	      0.27651665	      0.88053809	     -3.82260165	     -6.93867797	    -12.23125932	    -17.65232638	     -6.94546991	    -15.99374500	    -10.28727796	    -11.30830460	     56.67318338	    103.91915963	    -27.70022737	     -5.35347259	    -29.06193810	     43.83865234	     93.14227977
      0.80000000	      0.48125773	      0.55077223	     -2.62592781	      0.83578290	      1.04711925	     -0.20512864	      7.37105384	     -0.97107252	     -4.38790170	     66.25118000	      1.15630122	     -3.27324909	    -13.06580732	     -6.95329786	     14.24812795	      3.68646951	      3.59189109	     15.38759530	      0.26856420	      1.29794791	     -3.49461690	     -6.95329786	    -12.21927256	    -17.12314961	     -7.14507537	    -15.93324653	    -10.39969410	    -10.86620971	     56.64003309	    103.96170065	    -26.70156097	     -6.00221511	    -28.48743455	     44.27580135	     93.46846803
      0.81000000	      0.43064481	      0.31084658	     -2.42203515	      0.84598509	      1.04923574	     -0.20625304	      8.80752043	     -0.73094193	     -4.68680547	     67.16212080	      1.17220014	     -2.63740016	    -14.25555607	     -6.95681973	     13.33958666	      3.54304875	      3.82123173	     14.78474605	      0.25804250	      1.62698193	     -3.21859886	     -6.95681973	    -12.26247248	    -16.62669495	     -7.35904849	    -15.84438800	    -10.40309834	    -10.64353153	     56.60273045	    103.98015234	    -25.60305942	     -6.54160915	    -28.34291235	     44.80625490	     93.57472718
      0.82000000	      0.29532221	      0.10936446	     -2.20803445	      0.85614059	      1.05113814	     -0.20732437	     10.28449258	     -0.49212796	     -4.95388989	     67.74125669	      1.18230797	     -2.11954480	    -15.63993585	     -6.96137707	     12.51880970	      3.42477824	      4.01551597	     14.14886884	      0.24694435	      2.02745137	     -2.86513790	     -6.96137707	    -12.18398919	    -16.15877998	     -7.51414509	    -15.85072754	    -10.42695068	    -10.33329249	     56.60832687	    104.00945619	    -24.50131217	     -7.17784463	    -28.05524688	     45.41060631	     93.69554753
      0.83000000	      0.18682520	     -0.15305152	     -1.97098311	      0.86615139	      1.05293288	     -0.20833476	     11.68038241	     -0.15596749	     -5.24274903	     67.97848744	      1.18644843	     -2.22810894	    -17.27664439	     -6.97775415	     11.75172214	      3.19549988	      3.89964248	     13.65188182	      0.23827029	      2.64283366	     -2.13091194	     -6.97775415	    -12.14121970	    -15.59010960	     -7.64333038	    -15.89699196	    -10.47603093	    -10.04039775	     56.74960822	    104.03744456	    -23.33765892	     -7.99088880	    -27.11461961	     45.89809766	     93.86754336
      0.84000000	      0.07019883	     -0.38629594	     -1.70120762	      0.87611925	      1.05456398	     -0.20941695	     13.01938195	      0.12062964	     -5.52682000	     67.96807198	      1.18626664	     -1.47806338	    -17.90723806	     -6.98076213	     10.95614974	      3.02920898	      4.01431992	     13.04634196	      0.22770162	      2.91426295	     -1.83026594	     -6.98076213	    -12.07376576	    -15.05531761	     -7.88026646	    -15.83961485	    -10.45867813	     -9.87233335	     56.71847079	    104.04626596	    -22.13250303	     -8.56170634	    -26.97907433	     46.52217881	     93.93428835
      0.85000000	     -0.04592119	     -0.59997880	     -1.41072754	      0.88605477	      1.05605679	     -0.21042020	     14.28703890	      0.39697379	     -5.79393977	     67.66562338	      1.18098792	     -0.66933552	    -18.42330647	     -6.98379974	     10.17308362	      2.87475646	      4.15846913	     12.46178694	      0.21749921	      3.26236206	     -1.46655824	     -6.98379974	    -12.00811508	    -14.54375077	     -8.11091128	    -15.81802356	    -10.42273308	     -9.66287828	     56.72823102	    104.05799865	    -20.91185478	     -9.19195496	    -26.71420126	     47.20664626	     94.01183706
      0.86000000	     -0.03476663	     -0.82828417	     -1.09316943	      0.89597473	      1.05754507	     -0.21134354	     15.32328172	      0.68423700	     -6.04546839	     67.06710942	      1.17054188	      0.60561017	    -18.25428835	     -7.00497459	      9.32786126	      2.64635502	      4.00367302	     12.02141309	      0.20981324	      4.10102396	     -0.27805959	     -7.00497459	    -12.10054917	    -13.96858204	     -8.13572916	    -16.02836818	    -10.29877110	     -9.74318455	     57.04020312	    104.00463816	    -19.52952873	    -10.20863088	    -25.24567489	     47.65391417	     94.06439640
      0.87000000	     -0.09512003	     -1.04784141	     -0.74142347	      0.90582842	      1.05878421	     -0.21227772	     16.38157039	      0.96321863	     -6.32056799	     66.19759317	      1.15536596	      1.55844118	    -18.30323843	     -7.01194199	      8.53173871	      2.47434827	      4.28146188	     11.51431063	      0.20096263	      4.52652000	      0.10343155	     -7.01194199	    -12.09629309	    -13.42397573	     -8.39017089	    -16.00417214	    -10.17323075	     -9.69167417	     57.04579479	    103.98732647	    -18.21541223	    -10.88094307	    -24.85405997	     48.38502392	     94.14283669
      0.88000000	     -0.24263746	     -1.26962269	     -0.38974391	      0.91572722	      1.05977748	     -0.21321683	     17.46151307	      1.23708242	     -6.59231823	     65.04723814	      1.13528847	      2.34791082	    -18.21088143	     -7.01504951	      7.84520617	      2.29179180	      4.43764886	     11.00292881	      0.19203734	      4.78414280	      0.39080722	     -7.01504951	    -11.95333300	    -12.87595555	     -8.68367894	    -15.95262867	    -10.06167185	     -9.60480892	     57.00780039	    103.98161920	    -16.94395740	    -11.50376574	    -24.55009826	     49.14877179	     94.24299993
      0.89000000	     -0.10530316	     -1.48120171	      0.05886296	      0.92557040	      1.06096683	     -0.21419628	     18.10768240	      1.43466164	     -6.94079578	     63.61883151	      1.11035808	      3.82622437	    -17.11066828	     -7.02548148	      6.86267126	      2.11422249	      4.77077134	     10.53687375	      0.18390314	      5.46121015	      0.96617448	     -7.02548148	    -12.20597466	    -12.29155904	     -8.96250958	    -15.95352692	     -9.82782813	     -9.82631314	     57.09762167	    103.93616010	    -15.54208750	    -12.44477103	    -23.38841795	     49.78511738	     94.42630340
      0.90000000	     -0.32955546	     -1.66799933	      0.38766936	      0.93542310	      1.06152290	     -0.21495791	     19.13718821	      1.68559778	     -7.12322793	     61.97361250	      1.08164359	      4.44993748	    -16.74672228	     -7.02854310	      6.28736473	      1.94411629	      4.96170851	     10.07150092	      0.17578085	      5.64951493	      1.22500537	     -7.02854310	    -11.93912728	    -11.78763943	     -9.18942089	    -15.92716895	     -9.66947846	     -9.80923893	     57.03383691	    103.92691988	    -14.18369758	    -13.05906511	    -23.07366750	     50.56796755	     94.54531564
      0.91000000	     -0.26725172	     -1.80831196	      0.78152807	      0.94530637	      1.06224945	     -0.21586459	     19.72837121	      1.80629911	     -7.34926846	     60.11655261	      1.04923178	      6.00868906	    -15.03706517	     -7.04917628	      5.39318410	      1.82617425	      5.22572744	      9.61026227	      0.16773072	      6.17135083	      1.74616877	     -7.04917628	    -12.02451026	    -11.23828853	     -9.04408068	    -16.23919848	     -9.25351717	    -10.64974959	     57.38134988	    103.86453685	    -12.35931979	    -14.13887602	    -21.24289976	     50.78979318	     94.83830932
